<mxfile host="app.diagrams.net" modified="2022-04-18T19:16:23.545Z" agent="5.0 (Windows NT 10.0; Win64; x64) AppleWebKit/537.36 (KHTML, like Gecko) Chrome/100.0.4896.88 Safari/537.36" etag="jOqp9y9qUDJyN8UbT7Lh" version="17.4.5" type="github">
  <diagram id="mc_ApOTshuLB6Vw0gLuZ" name="Page-1">
    <mxGraphModel dx="1038" dy="579" grid="1" gridSize="10" guides="1" tooltips="1" connect="1" arrows="1" fold="1" page="1" pageScale="1" pageWidth="850" pageHeight="1100" math="0" shadow="0">
      <root>
        <mxCell id="0" />
        <mxCell id="1" parent="0" />
        <mxCell id="frhtZ4Jdz4YkHKB__lfG-51" value="" style="rounded=1;whiteSpace=wrap;html=1;fontSize=10;" vertex="1" parent="1">
          <mxGeometry x="724.5" y="210" width="115.5" height="130" as="geometry" />
        </mxCell>
        <mxCell id="frhtZ4Jdz4YkHKB__lfG-26" value="" style="image;html=1;image=img/lib/clip_art/people/Suit_Woman_Blue_128x128.png" vertex="1" parent="1">
          <mxGeometry x="17" y="140" width="80" height="80" as="geometry" />
        </mxCell>
        <mxCell id="frhtZ4Jdz4YkHKB__lfG-33" value="" style="rounded=1;whiteSpace=wrap;html=1;" vertex="1" parent="1">
          <mxGeometry x="220" y="60" width="490" height="410" as="geometry" />
        </mxCell>
        <mxCell id="frhtZ4Jdz4YkHKB__lfG-2" value="" style="edgeStyle=orthogonalEdgeStyle;rounded=0;orthogonalLoop=1;jettySize=auto;html=1;" edge="1" parent="1" source="frhtZ4Jdz4YkHKB__lfG-1">
          <mxGeometry relative="1" as="geometry">
            <mxPoint x="130" y="280" as="targetPoint" />
          </mxGeometry>
        </mxCell>
        <mxCell id="frhtZ4Jdz4YkHKB__lfG-1" value="" style="verticalLabelPosition=bottom;html=1;verticalAlign=top;align=center;strokeColor=none;fillColor=#00BEF2;shape=mxgraph.azure.laptop;pointerEvents=1;" vertex="1" parent="1">
          <mxGeometry x="32" y="265" width="50" height="30" as="geometry" />
        </mxCell>
        <mxCell id="frhtZ4Jdz4YkHKB__lfG-8" value="" style="edgeStyle=orthogonalEdgeStyle;rounded=0;orthogonalLoop=1;jettySize=auto;html=1;" edge="1" parent="1" source="frhtZ4Jdz4YkHKB__lfG-3" target="frhtZ4Jdz4YkHKB__lfG-6">
          <mxGeometry relative="1" as="geometry" />
        </mxCell>
        <mxCell id="frhtZ4Jdz4YkHKB__lfG-3" value="" style="image;html=1;image=img/lib/clip_art/networking/Firewall_02_128x128.png" vertex="1" parent="1">
          <mxGeometry x="130" y="240" width="80" height="80" as="geometry" />
        </mxCell>
        <mxCell id="frhtZ4Jdz4YkHKB__lfG-38" style="edgeStyle=orthogonalEdgeStyle;rounded=0;orthogonalLoop=1;jettySize=auto;html=1;" edge="1" parent="1" source="frhtZ4Jdz4YkHKB__lfG-6" target="frhtZ4Jdz4YkHKB__lfG-9">
          <mxGeometry relative="1" as="geometry" />
        </mxCell>
        <mxCell id="frhtZ4Jdz4YkHKB__lfG-6" value="" style="sketch=0;aspect=fixed;html=1;points=[];align=center;image;fontSize=12;image=img/lib/mscae/Application_Gateway.svg;" vertex="1" parent="1">
          <mxGeometry x="280" y="255" width="50" height="50" as="geometry" />
        </mxCell>
        <mxCell id="frhtZ4Jdz4YkHKB__lfG-12" style="edgeStyle=orthogonalEdgeStyle;rounded=0;orthogonalLoop=1;jettySize=auto;html=1;" edge="1" parent="1" source="frhtZ4Jdz4YkHKB__lfG-9" target="frhtZ4Jdz4YkHKB__lfG-11">
          <mxGeometry relative="1" as="geometry" />
        </mxCell>
        <mxCell id="frhtZ4Jdz4YkHKB__lfG-16" style="edgeStyle=orthogonalEdgeStyle;rounded=0;orthogonalLoop=1;jettySize=auto;html=1;" edge="1" parent="1" source="frhtZ4Jdz4YkHKB__lfG-9" target="frhtZ4Jdz4YkHKB__lfG-15">
          <mxGeometry relative="1" as="geometry">
            <mxPoint x="522" y="210" as="targetPoint" />
          </mxGeometry>
        </mxCell>
        <mxCell id="frhtZ4Jdz4YkHKB__lfG-19" style="edgeStyle=orthogonalEdgeStyle;rounded=0;orthogonalLoop=1;jettySize=auto;html=1;entryX=0.496;entryY=0;entryDx=0;entryDy=0;entryPerimeter=0;" edge="1" parent="1" source="frhtZ4Jdz4YkHKB__lfG-9" target="frhtZ4Jdz4YkHKB__lfG-18">
          <mxGeometry relative="1" as="geometry" />
        </mxCell>
        <mxCell id="frhtZ4Jdz4YkHKB__lfG-22" style="edgeStyle=orthogonalEdgeStyle;rounded=0;orthogonalLoop=1;jettySize=auto;html=1;entryX=0.363;entryY=-0.012;entryDx=0;entryDy=0;entryPerimeter=0;" edge="1" parent="1" source="frhtZ4Jdz4YkHKB__lfG-9" target="frhtZ4Jdz4YkHKB__lfG-20">
          <mxGeometry relative="1" as="geometry" />
        </mxCell>
        <mxCell id="frhtZ4Jdz4YkHKB__lfG-9" value="" style="sketch=0;pointerEvents=1;shadow=0;dashed=0;html=1;strokeColor=none;fillColor=#505050;labelPosition=center;verticalLabelPosition=bottom;verticalAlign=top;outlineConnect=0;align=center;shape=mxgraph.office.servers.cluster_server;" vertex="1" parent="1">
          <mxGeometry x="378" y="250.5" width="49" height="59" as="geometry" />
        </mxCell>
        <mxCell id="frhtZ4Jdz4YkHKB__lfG-24" style="edgeStyle=orthogonalEdgeStyle;rounded=0;orthogonalLoop=1;jettySize=auto;html=1;" edge="1" parent="1" source="frhtZ4Jdz4YkHKB__lfG-15" target="frhtZ4Jdz4YkHKB__lfG-21">
          <mxGeometry relative="1" as="geometry" />
        </mxCell>
        <mxCell id="frhtZ4Jdz4YkHKB__lfG-15" value="" style="sketch=0;pointerEvents=1;shadow=0;dashed=0;html=1;strokeColor=none;fillColor=#505050;labelPosition=center;verticalLabelPosition=bottom;verticalAlign=top;outlineConnect=0;align=center;shape=mxgraph.office.servers.cluster_server;" vertex="1" parent="1">
          <mxGeometry x="502" y="181" width="49" height="59" as="geometry" />
        </mxCell>
        <mxCell id="frhtZ4Jdz4YkHKB__lfG-25" style="edgeStyle=orthogonalEdgeStyle;rounded=0;orthogonalLoop=1;jettySize=auto;html=1;" edge="1" parent="1" source="frhtZ4Jdz4YkHKB__lfG-18" target="frhtZ4Jdz4YkHKB__lfG-21">
          <mxGeometry relative="1" as="geometry" />
        </mxCell>
        <mxCell id="frhtZ4Jdz4YkHKB__lfG-18" value="" style="sketch=0;aspect=fixed;html=1;points=[];align=center;image;fontSize=12;image=img/lib/mscae/Kubernetes.svg;" vertex="1" parent="1">
          <mxGeometry x="502" y="320" width="50" height="48" as="geometry" />
        </mxCell>
        <mxCell id="frhtZ4Jdz4YkHKB__lfG-20" value="" style="aspect=fixed;html=1;points=[];align=center;image;fontSize=12;image=img/lib/azure2/general/Storage_Azure_Files.svg;" vertex="1" parent="1">
          <mxGeometry x="380" y="368" width="64" height="52" as="geometry" />
        </mxCell>
        <mxCell id="frhtZ4Jdz4YkHKB__lfG-46" style="edgeStyle=orthogonalEdgeStyle;rounded=0;orthogonalLoop=1;jettySize=auto;html=1;fontSize=10;" edge="1" parent="1" source="frhtZ4Jdz4YkHKB__lfG-21" target="frhtZ4Jdz4YkHKB__lfG-28">
          <mxGeometry relative="1" as="geometry" />
        </mxCell>
        <mxCell id="frhtZ4Jdz4YkHKB__lfG-21" value="" style="sketch=0;pointerEvents=1;shadow=0;dashed=0;html=1;strokeColor=none;fillColor=#505050;labelPosition=center;verticalLabelPosition=bottom;verticalAlign=top;outlineConnect=0;align=center;shape=mxgraph.office.servers.cluster_server;" vertex="1" parent="1">
          <mxGeometry x="600" y="250.5" width="49" height="59" as="geometry" />
        </mxCell>
        <mxCell id="frhtZ4Jdz4YkHKB__lfG-27" style="edgeStyle=orthogonalEdgeStyle;rounded=0;orthogonalLoop=1;jettySize=auto;html=1;entryX=0.5;entryY=0;entryDx=0;entryDy=0;entryPerimeter=0;" edge="1" parent="1" source="frhtZ4Jdz4YkHKB__lfG-26" target="frhtZ4Jdz4YkHKB__lfG-1">
          <mxGeometry relative="1" as="geometry" />
        </mxCell>
        <mxCell id="frhtZ4Jdz4YkHKB__lfG-28" value="" style="sketch=0;pointerEvents=1;shadow=0;dashed=0;html=1;strokeColor=none;fillColor=#505050;labelPosition=center;verticalLabelPosition=bottom;verticalAlign=top;outlineConnect=0;align=center;shape=mxgraph.office.servers.cluster_server;" vertex="1" parent="1">
          <mxGeometry x="760" y="250.5" width="49" height="59" as="geometry" />
        </mxCell>
        <mxCell id="frhtZ4Jdz4YkHKB__lfG-11" value="" style="aspect=fixed;html=1;points=[];align=center;image;fontSize=12;image=img/lib/azure2/databases/SQL_Server.svg;" vertex="1" parent="1">
          <mxGeometry x="368.5" y="100" width="68" height="68" as="geometry" />
        </mxCell>
        <mxCell id="frhtZ4Jdz4YkHKB__lfG-34" value="" style="aspect=fixed;html=1;points=[];align=center;image;fontSize=12;image=img/lib/azure2/networking/Virtual_Networks.svg;" vertex="1" parent="1">
          <mxGeometry x="280" y="450" width="67" height="40" as="geometry" />
        </mxCell>
        <mxCell id="frhtZ4Jdz4YkHKB__lfG-35" value="&lt;font style=&quot;font-size: 10px&quot;&gt;Performance&lt;br&gt;Engineer&lt;/font&gt;" style="text;html=1;align=center;verticalAlign=middle;resizable=0;points=[];autosize=1;strokeColor=none;fillColor=none;" vertex="1" parent="1">
          <mxGeometry x="22" y="105" width="70" height="40" as="geometry" />
        </mxCell>
        <mxCell id="frhtZ4Jdz4YkHKB__lfG-36" value="&lt;font style=&quot;font-size: 10px&quot;&gt;Firewall&lt;/font&gt;" style="text;html=1;align=center;verticalAlign=middle;resizable=0;points=[];autosize=1;strokeColor=none;fillColor=none;" vertex="1" parent="1">
          <mxGeometry x="140" y="324.5" width="50" height="20" as="geometry" />
        </mxCell>
        <mxCell id="frhtZ4Jdz4YkHKB__lfG-37" value="&lt;font style=&quot;font-size: 10px&quot;&gt;Application&lt;br&gt;Gateway&lt;/font&gt;" style="text;html=1;align=center;verticalAlign=middle;resizable=0;points=[];autosize=1;strokeColor=none;fillColor=none;" vertex="1" parent="1">
          <mxGeometry x="275" y="304.5" width="60" height="40" as="geometry" />
        </mxCell>
        <mxCell id="frhtZ4Jdz4YkHKB__lfG-39" value="&lt;font style=&quot;font-size: 10px&quot;&gt;MS SQL Server&lt;/font&gt;" style="text;html=1;align=center;verticalAlign=middle;resizable=0;points=[];autosize=1;strokeColor=none;fillColor=none;" vertex="1" parent="1">
          <mxGeometry x="350" y="80" width="90" height="20" as="geometry" />
        </mxCell>
        <mxCell id="frhtZ4Jdz4YkHKB__lfG-40" value="&lt;font style=&quot;font-size: 10px&quot;&gt;Azure Virtual Network&lt;/font&gt;" style="text;html=1;align=center;verticalAlign=middle;resizable=0;points=[];autosize=1;strokeColor=none;fillColor=none;" vertex="1" parent="1">
          <mxGeometry x="265" y="490" width="110" height="20" as="geometry" />
        </mxCell>
        <mxCell id="frhtZ4Jdz4YkHKB__lfG-41" value="&lt;font style=&quot;font-size: 10px&quot;&gt;LoadRunner Enterprise&lt;br&gt;Servers&lt;/font&gt;" style="text;html=1;align=center;verticalAlign=middle;resizable=0;points=[];autosize=1;strokeColor=none;fillColor=none;" vertex="1" parent="1">
          <mxGeometry x="350" y="304.5" width="120" height="40" as="geometry" />
        </mxCell>
        <mxCell id="frhtZ4Jdz4YkHKB__lfG-42" value="Azure File Share" style="text;html=1;align=center;verticalAlign=middle;resizable=0;points=[];autosize=1;strokeColor=none;fillColor=none;fontSize=10;" vertex="1" parent="1">
          <mxGeometry x="368.5" y="430" width="90" height="20" as="geometry" />
        </mxCell>
        <mxCell id="frhtZ4Jdz4YkHKB__lfG-43" value="Kubernetes" style="text;html=1;align=center;verticalAlign=middle;resizable=0;points=[];autosize=1;strokeColor=none;fillColor=none;fontSize=10;" vertex="1" parent="1">
          <mxGeometry x="492" y="370" width="70" height="20" as="geometry" />
        </mxCell>
        <mxCell id="frhtZ4Jdz4YkHKB__lfG-44" value="LoadRunner Hosts" style="text;html=1;align=center;verticalAlign=middle;resizable=0;points=[];autosize=1;strokeColor=none;fillColor=none;fontSize=10;" vertex="1" parent="1">
          <mxGeometry x="477" y="160" width="100" height="20" as="geometry" />
        </mxCell>
        <mxCell id="frhtZ4Jdz4YkHKB__lfG-45" value="Containerized&lt;br&gt;Load Generators" style="text;html=1;align=center;verticalAlign=middle;resizable=0;points=[];autosize=1;strokeColor=none;fillColor=none;fontSize=10;" vertex="1" parent="1">
          <mxGeometry x="620" y="210" width="90" height="30" as="geometry" />
        </mxCell>
        <mxCell id="frhtZ4Jdz4YkHKB__lfG-52" value="Applicaton Under Test" style="text;html=1;align=center;verticalAlign=middle;resizable=0;points=[];autosize=1;strokeColor=none;fillColor=none;fontSize=10;" vertex="1" parent="1">
          <mxGeometry x="730" y="230.5" width="110" height="20" as="geometry" />
        </mxCell>
        <mxCell id="frhtZ4Jdz4YkHKB__lfG-53" value="&lt;font style=&quot;font-size: 18px&quot;&gt;&lt;b&gt;Containerized Load Generation&lt;/b&gt;&lt;/font&gt;" style="text;html=1;align=center;verticalAlign=middle;resizable=0;points=[];autosize=1;strokeColor=none;fillColor=none;fontSize=10;" vertex="1" parent="1">
          <mxGeometry x="325" y="20" width="280" height="20" as="geometry" />
        </mxCell>
      </root>
    </mxGraphModel>
  </diagram>
</mxfile>
